<?xml version="1.0" encoding="UTF-8"?>
<svg version="1.1" xmlns="http://www.w3.org/2000/svg" width="572" height="582">
<path d="M0 0 C1.24885986 0.45197754 1.24885986 0.45197754 2.52294922 0.91308594 C45.1691023 16.62788986 85.06406557 43.82921923 113 80 C114.16015625 81.43472656 114.16015625 81.43472656 115.34375 82.8984375 C135.15112648 107.78302124 143.74264228 131.57128011 140.76123047 163.56201172 C140.4730866 165.98916095 140.13221674 168.39847281 139.75 170.8125 C139.64083252 171.5226123 139.53166504 172.23272461 139.41918945 172.96435547 C137.61914088 182.9006236 132.82564684 189.87414402 124.60693359 195.69482422 C121.83186938 197.4989513 119.02119893 199.22698556 116.1875 200.9375 C115.14940186 201.57502197 114.11130371 202.21254395 113.04174805 202.86938477 C110.26963953 204.57050313 107.49269889 206.26339864 104.7142334 207.95410156 C101.83720793 209.70944972 98.96943124 211.4797448 96.1015625 213.25 C90.77299239 216.53792536 85.44102088 219.8201999 80.10180664 223.09082031 C77.90779395 224.44124765 75.71989167 225.79908232 73.53686523 227.16699219 C72.95917892 227.52720963 72.38149261 227.88742706 71.78630066 228.25856018 C70.17395327 229.26443555 68.56395151 230.27406797 66.95410156 231.28393555 C47.16469325 242.77978274 20.66925683 241.37519176 -1 237 C-11.93821484 233.68843037 -17.03562908 225.68954821 -22.6875 216.375 C-37.29536388 192.31135346 -60.39827811 172.9365198 -87.875 165.5625 C-108.20462783 160.65406296 -128.19304651 165.62012032 -145.859375 176.2578125 C-170.61551847 191.8868845 -190.9126823 215.29167655 -198.41113281 244.07104492 C-199.39958949 248.9875104 -199.48998995 253.81101577 -199.4375 258.8125 C-199.42702637 259.86783936 -199.41655273 260.92317871 -199.40576172 262.01049805 C-198.93282831 282.38891664 -188.92372332 300.5857675 -176 316 C-175.278125 316.89589844 -174.55625 317.79179687 -173.8125 318.71484375 C-158.89939488 336.27300975 -136.20133304 351.03686679 -113 354 C-85.90798835 355.72506546 -64.04462715 344.61022244 -43.65698242 327.28027344 C-38.4489896 322.69541211 -34.13489694 317.56778202 -30 312 C-29.42121094 311.2471875 -28.84242188 310.494375 -28.24609375 309.71875 C-24.8368183 305.09922131 -22.0492366 300.29239457 -19.35668945 295.23486328 C-14.4159499 285.9871708 -9.86945472 277.83802899 0.73046875 274.5546875 C22.63758182 269.20045333 51.15604302 268.84758885 70.97363281 280.75097656 C71.97668457 281.36924316 71.97668457 281.36924316 73 282 C73.80276367 282.49467773 74.60552734 282.98935547 75.43261719 283.49902344 C81.07744183 287.00808079 86.6649066 290.60210191 92.24121094 294.21875 C96.40962395 296.91014304 100.61156061 299.54730668 104.8125 302.1875 C107.11415642 303.64308345 109.41476558 305.10031183 111.71533203 306.55761719 C114.04386623 308.02769413 116.37930894 309.48638983 118.71484375 310.9453125 C120.22686298 311.90056622 121.73859357 312.856277 123.25 313.8125 C123.92909424 314.23233154 124.60818848 314.65216309 125.30786133 315.0847168 C133.83739281 320.51898246 139.13002799 326.23981419 142 336 C148.23649482 366.63916262 144.13603623 393.44230997 127.125 419.1875 C119.42951956 430.53866478 111.19780469 441.07291499 101.76171875 451.02734375 C99.88253376 453.01600855 98.10601562 455.05312762 96.375 457.171875 C94.44018673 459.47583027 92.60395314 461.38887231 90.3125 463.3125 C87.30318744 465.86957821 84.39008138 468.49656708 81.5 471.1875 C24.47553168 522.32780467 -53.00886194 538.30539953 -127.60546875 534.72265625 C-183.27691279 531.33564922 -238.45508883 513.50410833 -282 478 C-282.96035156 477.24332031 -283.92070312 476.48664063 -284.91015625 475.70703125 C-300.81575014 462.79784602 -316.11892515 447.71229725 -328 431 C-328.76957031 429.94039063 -329.53914063 428.88078125 -330.33203125 427.7890625 C-336.0146581 419.79272557 -341.10757334 411.49385811 -346 403 C-346.65742188 401.8759375 -347.31484375 400.751875 -347.9921875 399.59375 C-357.7129211 382.26039371 -364.69805431 363.12301772 -370 344 C-370.21994629 343.20803223 -370.43989258 342.41606445 -370.66650391 341.60009766 C-388.05622422 277.43802614 -384.06644846 203.51450031 -359 142 C-358.71962891 141.3076123 -358.43925781 140.61522461 -358.15039062 139.90185547 C-342.33352271 101.36351561 -315.1871601 65.34128257 -282 40 C-281.46890625 39.58717773 -280.9378125 39.17435547 -280.390625 38.74902344 C-265.13845012 26.93383522 -248.49971168 17.09814244 -231 9 C-230.24235352 8.64341309 -229.48470703 8.28682617 -228.70410156 7.91943359 C-206.25272245 -2.55273212 -182.41873103 -9.05693469 -158 -13 C-157.01273926 -13.16371094 -156.02547852 -13.32742187 -155.00830078 -13.49609375 C-104.31570249 -21.47113603 -48.24696573 -17.47527893 0 0 Z " fill="#FEFEFE" transform="translate(402,32)"/>
<path d="M0 0 C3.85090146 3.4289766 7.60122572 6.95724747 11.31738281 10.53125 C11.80867676 11.00062988 12.2999707 11.47000977 12.80615234 11.95361328 C25.78881652 24.41260697 38.76616071 39.56498215 47.31738281 55.53125 C47.31738281 56.19125 47.31738281 56.85125 47.31738281 57.53125 C48.30738281 57.86125 49.29738281 58.19125 50.31738281 58.53125 C51.52050781 60.203125 51.52050781 60.203125 52.56738281 62.28125 C52.92316406 62.95671875 53.27894531 63.6321875 53.64550781 64.328125 C54.53880657 67.25731396 54.45712547 68.67513599 53.31738281 71.53125 C51.29195781 73.07294484 49.47592792 74.21498068 47.25488281 75.40625 C45.87557991 76.18972524 44.49810012 76.97641532 43.12207031 77.765625 C42.35733398 78.20068359 41.59259766 78.63574219 40.8046875 79.08398438 C36.0922103 81.82599113 31.49419378 84.75316959 26.87988281 87.65625 C24.81227911 88.9519899 22.74456905 90.24756007 20.67675781 91.54296875 C19.63197266 92.1982959 18.5871875 92.85362305 17.51074219 93.52880859 C9.31140592 98.670319 1.10398436 103.79888526 -7.10693359 108.921875 C-9.40945527 110.36056911 -11.70865098 111.80439403 -14.00683594 113.25 C-15.19029553 113.98979798 -16.37387544 114.72940356 -17.55761719 115.46875 C-18.52441406 116.07589844 -19.49121094 116.68304688 -20.48730469 117.30859375 C-22.68261719 118.53125 -22.68261719 118.53125 -24.68261719 118.53125 C-25.21628906 117.46648437 -25.74996094 116.40171875 -26.29980469 115.3046875 C-39.0908937 90.20541163 -56.8240876 69.33838758 -81.68261719 55.53125 C-82.56892822 55.0347998 -82.56892822 55.0347998 -83.47314453 54.52832031 C-114.4933904 37.38145074 -152.7295055 31.50074898 -187.16015625 41.23144531 C-208.36545211 47.65851745 -227.92389475 58.0020138 -244.68261719 72.53125 C-245.5140625 73.21703125 -246.34550781 73.9028125 -247.20214844 74.609375 C-271.48433609 95.25879442 -286.78503464 128.24829083 -290.68261719 159.53125 C-291.57241341 177.62050035 -291.90035582 196.04745759 -286.68261719 213.53125 C-286.46831055 214.26005371 -286.25400391 214.98885742 -286.03320312 215.73974609 C-280.23833038 234.82402497 -270.6147313 252.36000658 -257.68261719 267.53125 C-256.87050781 268.4903125 -256.05839844 269.449375 -255.22167969 270.4375 C-232.88864929 296.14839083 -198.58667088 312.8462727 -164.68261719 315.53125 C-125.85891133 317.6686849 -90.5646334 306.63017121 -60.68261719 281.53125 C-59.92207031 280.90605469 -59.16152344 280.28085937 -58.37792969 279.63671875 C-52.36166167 274.52601357 -47.48485485 268.78015106 -42.68261719 262.53125 C-41.99039062 261.63148438 -41.29816406 260.73171875 -40.58496094 259.8046875 C-32.80509777 249.40155641 -26.90353164 238.38827183 -21.68261719 226.53125 C-12.66245749 231.06201829 -4.34502846 236.58158388 4.08300781 242.109375 C8.88183739 245.2556275 13.71287542 248.34673441 18.56738281 251.40625 C19.3243042 251.88336426 20.08122559 252.36047852 20.86108398 252.85205078 C25.44597081 255.7365288 30.03902064 258.60785648 34.63378906 261.4765625 C35.71176758 262.14961426 36.78974609 262.82266602 37.90039062 263.51611328 C40.00713401 264.83067783 42.11452602 266.14420361 44.22265625 267.45654297 C48.96840897 270.41531472 53.69065431 273.38915934 58.31738281 276.53125 C57.75409148 281.6828053 55.26892267 285.67150205 52.75488281 290.09375 C52.30306641 290.89514404 51.85125 291.69653809 51.38574219 292.5222168 C42.81130063 307.57435265 32.67179255 321.2192527 20.83300781 333.828125 C18.7769679 336.03741012 16.81638009 338.28123383 14.87988281 340.59375 C-3.17917615 361.24481508 -27.95841154 377.11673234 -52.68261719 388.53125 C-53.32763184 388.83369629 -53.97264648 389.13614258 -54.63720703 389.44775391 C-71.70755976 397.40769207 -89.30028628 402.55403175 -107.68261719 406.53125 C-108.49835205 406.71091309 -109.31408691 406.89057617 -110.15454102 407.07568359 C-167.6241075 419.23694169 -230.70779994 404.8336421 -279.68261719 373.53125 C-289.66404502 366.91415049 -298.97701251 359.76407839 -307.68261719 351.53125 C-309.01106574 350.37975695 -310.34427123 349.23372452 -311.68261719 348.09375 C-320.22258506 340.61913023 -327.67461621 332.4417667 -334.68261719 323.53125 C-335.47410156 322.55671875 -336.26558594 321.5821875 -337.08105469 320.578125 C-363.37711733 287.56287916 -379.27069723 247.23778915 -384.68261719 205.53125 C-384.77687988 204.85449219 -384.87114258 204.17773438 -384.96826172 203.48046875 C-387.69086212 180.99831586 -387.43891698 155.65787108 -382.68261719 133.53125 C-382.45155273 132.45020996 -382.22048828 131.36916992 -381.98242188 130.25537109 C-378.51249057 114.50101003 -374.10351555 99.33745735 -367.68261719 84.53125 C-367.30766113 83.6645166 -366.93270508 82.7977832 -366.54638672 81.90478516 C-356.70377013 59.51805913 -343.37736689 38.59685778 -326.67480469 20.67578125 C-324.8756793 18.73907568 -323.18552523 16.74976264 -321.49511719 14.71875 C-307.01747007 -1.83190895 -288.11279249 -16.21523581 -268.68261719 -26.46875 C-267.69261719 -26.46875 -266.70261719 -26.46875 -265.68261719 -26.46875 C-265.68261719 -27.12875 -265.68261719 -27.78875 -265.68261719 -28.46875 C-257.47618556 -32.71097062 -249.41444382 -36.85593727 -240.62402344 -39.77734375 C-238.70344927 -40.30495366 -238.70344927 -40.30495366 -237.68261719 -41.46875 C-236.01644604 -41.50938832 -234.34873624 -41.511471 -232.68261719 -41.46875 C-232.68261719 -42.12875 -232.68261719 -42.78875 -232.68261719 -43.46875 C-224.9188435 -46.3306901 -217.17706158 -48.37189026 -209.09130859 -50.07324219 C-205.80617716 -50.76584227 -202.62717942 -51.48599141 -199.41699219 -52.484375 C-131.43594622 -70.40406494 -51.79390539 -45.21069861 0 0 Z " fill="#500CAE" transform="translate(449.6826171875,114.46875)"/>
<path d="M0 0 C3.85090146 3.4289766 7.60122572 6.95724747 11.31738281 10.53125 C11.80867676 11.00062988 12.2999707 11.47000977 12.80615234 11.95361328 C25.78881652 24.41260697 38.76616071 39.56498215 47.31738281 55.53125 C47.31738281 56.19125 47.31738281 56.85125 47.31738281 57.53125 C48.30738281 57.86125 49.29738281 58.19125 50.31738281 58.53125 C51.52050781 60.203125 51.52050781 60.203125 52.56738281 62.28125 C52.92316406 62.95671875 53.27894531 63.6321875 53.64550781 64.328125 C54.53880657 67.25731396 54.45712547 68.67513599 53.31738281 71.53125 C51.29195781 73.07294484 49.47592792 74.21498068 47.25488281 75.40625 C45.87557991 76.18972524 44.49810012 76.97641532 43.12207031 77.765625 C42.35733398 78.20068359 41.59259766 78.63574219 40.8046875 79.08398438 C36.0922103 81.82599113 31.49419378 84.75316959 26.87988281 87.65625 C24.81227911 88.9519899 22.74456905 90.24756007 20.67675781 91.54296875 C19.63197266 92.1982959 18.5871875 92.85362305 17.51074219 93.52880859 C9.31140592 98.670319 1.10398436 103.79888526 -7.10693359 108.921875 C-9.40945527 110.36056911 -11.70865098 111.80439403 -14.00683594 113.25 C-15.19029553 113.98979798 -16.37387544 114.72940356 -17.55761719 115.46875 C-18.52441406 116.07589844 -19.49121094 116.68304688 -20.48730469 117.30859375 C-22.68261719 118.53125 -22.68261719 118.53125 -24.68261719 118.53125 C-25.21628906 117.46648437 -25.74996094 116.40171875 -26.29980469 115.3046875 C-39.0908937 90.20541163 -56.8240876 69.33838758 -81.68261719 55.53125 C-82.56892822 55.0347998 -82.56892822 55.0347998 -83.47314453 54.52832031 C-114.4933904 37.38145074 -152.7295055 31.50074898 -187.16015625 41.23144531 C-208.36545211 47.65851745 -227.92389475 58.0020138 -244.68261719 72.53125 C-245.5140625 73.21703125 -246.34550781 73.9028125 -247.20214844 74.609375 C-271.48433609 95.25879442 -286.78503464 128.24829083 -290.68261719 159.53125 C-291.57208241 177.61377126 -291.91210784 196.05613423 -286.68261719 213.53125 C-286.46299316 214.27068848 -286.24336914 215.01012695 -286.01708984 215.77197266 C-283.20758661 224.92423266 -279.48497215 233.42118252 -275.00292969 241.87109375 C-273.68261719 244.53125 -273.68261719 244.53125 -273.68261719 246.53125 C-275.00261719 246.20125 -276.32261719 245.87125 -277.68261719 245.53125 C-277.68261719 244.87125 -277.68261719 244.21125 -277.68261719 243.53125 C-278.50439453 243.41523437 -278.50439453 243.41523437 -279.34277344 243.296875 C-282.53965315 242.25081753 -284.54760905 240.43630536 -287.12011719 238.28125 C-288.04695313 237.51296875 -288.97378906 236.7446875 -289.92871094 235.953125 C-292.63258199 233.57525258 -295.15868503 231.0982928 -297.68261719 228.53125 C-298.64559995 227.58794019 -299.61050402 226.64658847 -300.57714844 225.70703125 C-301.54982915 224.7526291 -302.52248527 223.79820188 -303.49511719 222.84375 C-303.99720703 222.35841797 -304.49929688 221.87308594 -305.01660156 221.37304688 C-306.27678992 220.13000394 -307.48452763 218.83425108 -308.68261719 217.53125 C-308.68261719 216.87125 -308.68261719 216.21125 -308.68261719 215.53125 C-309.34261719 215.53125 -310.00261719 215.53125 -310.68261719 215.53125 C-311.88427734 214.19287109 -311.88427734 214.19287109 -313.22167969 212.3046875 C-313.96272949 211.26272217 -313.96272949 211.26272217 -314.71875 210.19970703 C-315.24307617 209.44286621 -315.76740234 208.68602539 -316.30761719 207.90625 C-316.84741211 207.13007324 -317.38720703 206.35389648 -317.94335938 205.55419922 C-343.10465101 168.9525469 -353.06219159 124.81740369 -345.22607422 80.97705078 C-340.60378835 56.4980287 -331.03526514 32.27894418 -315.39746094 12.68359375 C-313.65550699 10.65001115 -313.65550699 10.65001115 -312.68261719 8.53125 C-317.63261719 13.48125 -317.63261719 13.48125 -322.68261719 18.53125 C-322.68261719 15.53125 -322.68261719 15.53125 -320.77636719 13.296875 C-279.77578489 -26.46875 -279.77578489 -26.46875 -265.68261719 -26.46875 C-265.68261719 -27.12875 -265.68261719 -27.78875 -265.68261719 -28.46875 C-257.47618556 -32.71097062 -249.41444382 -36.85593727 -240.62402344 -39.77734375 C-238.70344927 -40.30495366 -238.70344927 -40.30495366 -237.68261719 -41.46875 C-236.01644604 -41.50938832 -234.34873624 -41.511471 -232.68261719 -41.46875 C-232.68261719 -42.12875 -232.68261719 -42.78875 -232.68261719 -43.46875 C-224.9188435 -46.3306901 -217.17706158 -48.37189026 -209.09130859 -50.07324219 C-205.80617716 -50.76584227 -202.62717942 -51.48599141 -199.41699219 -52.484375 C-131.43594622 -70.40406494 -51.79390539 -45.21069861 0 0 Z " fill="#8B29EC" transform="translate(449.6826171875,114.46875)"/>
<path d="M0 0 C2.63781077 2.26884318 5.24189098 4.57154027 7.83203125 6.89453125 C10.44862949 9.40604467 10.44862949 9.40604467 12.74609375 10.44921875 C13.07609375 9.78921875 13.40609375 9.12921875 13.74609375 8.44921875 C14.61801322 9.83403203 15.46799759 11.23267121 16.30859375 12.63671875 C16.78425781 13.41402344 17.25992188 14.19132812 17.75 14.9921875 C19.00624162 18.09091683 19.04934539 19.36386922 17.74609375 22.44921875 C15.72066874 23.99091359 13.90463886 25.13294943 11.68359375 26.32421875 C10.30429085 27.10769399 8.92681106 27.89438407 7.55078125 28.68359375 C6.78604492 29.11865234 6.02130859 29.55371094 5.23339844 30.00195312 C0.52092124 32.74395988 -4.07709528 35.67113834 -8.69140625 38.57421875 C-10.75900995 39.86995865 -12.82672002 41.16552882 -14.89453125 42.4609375 C-15.93931641 43.11626465 -16.98410156 43.7715918 -18.06054688 44.44677734 C-26.25988314 49.58828775 -34.46730471 54.71685401 -42.67822266 59.83984375 C-44.98074433 61.27853786 -47.27994005 62.72236278 -49.578125 64.16796875 C-50.7615846 64.90776673 -51.9451645 65.64737231 -53.12890625 66.38671875 C-54.09570312 66.99386719 -55.0625 67.60101563 -56.05859375 68.2265625 C-58.25390625 69.44921875 -58.25390625 69.44921875 -60.25390625 69.44921875 C-60.78757812 68.38445312 -61.32125 67.3196875 -61.87109375 66.22265625 C-74.66218276 41.12338038 -92.39537666 20.25635633 -117.25390625 6.44921875 C-117.84478027 6.11825195 -118.4356543 5.78728516 -119.04443359 5.44628906 C-141.11466392 -6.75333574 -164.27337644 -11.63377446 -189.25390625 -12.55078125 C-176.36577657 -26.88336004 -147.74093816 -32.5937071 -129.25390625 -35.55078125 C-128.11308594 -35.73382813 -126.97226562 -35.916875 -125.796875 -36.10546875 C-81.0658426 -41.42052381 -34.56597664 -29.24450085 0 0 Z " fill="#AC60F8" transform="translate(485.25390625,163.55078125)"/>
<path d="M0 0 C4.12257587 0.5729666 6.81917978 1.90672513 10.2890625 4.17578125 C11.80995483 5.16106812 11.80995483 5.16106812 13.36157227 6.16625977 C14.97696899 7.22864868 14.97696899 7.22864868 16.625 8.3125 C17.75585028 9.04768461 18.88728616 9.78196923 20.01928711 10.51538086 C22.29222496 11.98853741 24.56311634 13.46476414 26.83251953 14.94335938 C31.05419924 17.68449009 35.30291588 20.38078083 39.5625 23.0625 C40.29960205 23.52760986 41.0367041 23.99271973 41.79614258 24.47192383 C49.48290487 29.31654955 57.19289425 34.12427446 64.90649414 38.92602539 C69.65182264 41.88457911 74.3736645 44.85817623 79 48 C78.43670867 53.1515553 75.95153986 57.14025205 73.4375 61.5625 C72.75977539 62.76459106 72.75977539 62.76459106 72.06835938 63.9909668 C63.49391782 79.04310265 53.35440974 92.6880027 41.515625 105.296875 C39.45958509 107.50616012 37.49899728 109.74998383 35.5625 112.0625 C12.31335873 138.64857684 -24.74271347 161.76143529 -59 171 C-61.80078125 171.09765625 -61.80078125 171.09765625 -64 171 C-61.01304306 167.81391259 -57.89721152 165.10610196 -54.4375 162.4375 C-22.23291403 136.807223 -2.32123236 97.32806825 2.49609375 56.7421875 C4.38165963 37.68699794 2.92688309 18.86127057 0 0 Z " fill="#18017F" transform="translate(429,343)"/>
<path d="M0 0 C0 3.60573896 -0.81707462 4.41336566 -3 7.1875 C-3.556875 7.90292969 -4.11375 8.61835938 -4.6875 9.35546875 C-5.120625 9.89816406 -5.55375 10.44085938 -6 11 C-6.66 10.01 -7.32 9.02 -8 8 C-5.36 5.36 -2.72 2.72 0 0 Z M-13 12 C-12.34 12.33 -11.68 12.66 -11 13 C-13.31 15.31 -15.62 17.62 -18 20 C-18 17 -18 17 -15.5 14.3125 C-14.675 13.549375 -13.85 12.78625 -13 12 Z " fill="#702BB3" transform="translate(138,121)"/>
<path d="M0 0 C0.66 0.33 1.32 0.66 2 1 C-0.64 3.64 -3.28 6.28 -6 9 C-6.33 8.01 -6.66 7.02 -7 6 C-4.69 4.02 -2.38 2.04 0 0 Z " fill="#A25AE9" transform="translate(151,108)"/>
<path d="M0 0 C0.66 0.33 1.32 0.66 2 1 C1.67 1.33 1.34 1.66 1 2 C1.66 2.66 2.32 3.32 3 4 C0.36 4.33 -2.28 4.66 -5 5 C-3.35 3.35 -1.7 1.7 0 0 Z " fill="#2B138E" transform="translate(370,509)"/>
</svg>
