<?xml version="1.0" encoding="UTF-8"?>
<svg version="1.1" xmlns="http://www.w3.org/2000/svg" width="256" height="256">
<path d="M0 0 C19.34357371 16.51124647 33.37829459 35.80752851 41.6640625 59.91015625 C41.89456299 60.57257324 42.12506348 61.23499023 42.36254883 61.91748047 C46.53199286 74.80708014 47.90980067 87.75394872 47.7890625 101.22265625 C47.78635345 101.93838806 47.78364441 102.65411987 47.78085327 103.39154053 C47.71469197 114.96413389 46.68219191 125.79335344 43.3515625 136.91015625 C43.17496094 137.5546875 42.99835938 138.19921875 42.81640625 138.86328125 C34.22776579 170.16410427 11.16736302 196.96517794 -16.61621094 213.04931641 C-26.78241603 218.74471901 -37.45512127 222.74034483 -48.6484375 225.91015625 C-49.82664063 226.25175781 -51.00484375 226.59335938 -52.21875 226.9453125 C-84.90834584 234.66867855 -121.24521036 228.27732032 -149.6484375 210.91015625 C-157.62410893 205.71415566 -164.72891516 199.41693516 -171.6484375 192.91015625 C-172.53402344 192.12125 -172.53402344 192.12125 -173.4375 191.31640625 C-187.20940963 178.52354233 -197.07998345 160.3502956 -203.0859375 142.72265625 C-203.30870361 142.07192139 -203.53146973 141.42118652 -203.76098633 140.75073242 C-207.87196953 127.7175691 -209.20536286 114.68661091 -209.0859375 101.09765625 C-209.08289612 100.35758331 -209.07985474 99.61751038 -209.07672119 98.85501099 C-209.00580754 87.14937323 -208.1413084 76.13284413 -204.6484375 64.91015625 C-204.43944824 64.2022998 -204.23045898 63.49444336 -204.01513672 62.76513672 C-194.28878093 30.36580775 -172.11878273 4.09181498 -142.6875 -12.36328125 C-133.10048894 -17.47523645 -123.08686217 -21.13380847 -112.6484375 -24.08984375 C-111.47023438 -24.43144531 -110.29203125 -24.77304687 -109.078125 -25.125 C-71.91216204 -33.90596927 -29.43835184 -24.14652242 0 0 Z " fill="#9462F3" transform="translate(208.6484375,27.08984375)"/>
<path d="M0 0 C1.61841797 0.35964844 1.61841797 0.35964844 3.26953125 0.7265625 C23.36656987 5.8228347 41.22340698 14.44111312 57 28 C57.68320313 28.55042969 58.36640625 29.10085937 59.0703125 29.66796875 C68.69916443 37.61649161 78.67267708 49.16780302 83 61 C79.58997792 59.74649014 76.81760834 58.30774442 73.875 56.1875 C56.39684622 44.35303344 34.21320112 40.35253737 13.47265625 43.61328125 C-6.93637302 47.55505946 -26.75243285 59.70083793 -38.52441406 76.91186523 C-51.00140648 95.9599689 -56.48427945 117.56818716 -52.12109375 140.1484375 C-47.3722192 160.99417349 -35.90780401 180.12991304 -17.98046875 192.171875 C2.13329102 204.5090173 23.5983644 209.60727762 47.1171875 204.81640625 C58.5167198 201.58808342 69.80262789 196.56681701 79.20703125 189.29296875 C81 188 81 188 83 188 C74.43362327 211.97724541 48.39214237 228.98397777 26.6875 239.8125 C20.6010208 242.53661069 14.39729911 244.56651328 8 246.4375 C7.11530029 246.69700439 6.23060059 246.95650879 5.3190918 247.22387695 C-2.74247539 249.45090117 -8.93969225 249.47288944 -16.875 246.5625 C-17.972677 246.16478394 -17.972677 246.16478394 -19.0925293 245.7590332 C-36.79021716 239.09759703 -51.26526207 228.91547287 -65 216 C-65.88558594 215.21109375 -65.88558594 215.21109375 -66.7890625 214.40625 C-80.56097213 201.61338608 -90.43154595 183.44013935 -96.4375 165.8125 C-96.66026611 165.16176514 -96.88303223 164.51103027 -97.11254883 163.84057617 C-101.22353203 150.80741285 -102.55692536 137.77645466 -102.4375 124.1875 C-102.43445862 123.44742706 -102.43141724 122.70735413 -102.42828369 121.94485474 C-102.35737004 110.23921698 -101.4928709 99.22268788 -98 88 C-97.79101074 87.29214355 -97.58202148 86.58428711 -97.36669922 85.85498047 C-87.64034343 53.4556515 -65.47034523 27.18165873 -36.0390625 10.7265625 C-29.0555027 7.0039715 -21.84789654 4.03049587 -14.375 1.4375 C-13.62879395 1.17348389 -12.88258789 0.90946777 -12.11376953 0.63745117 C-7.65984028 -0.81873822 -4.64360909 -1.2062134 0 0 Z " fill="#8232E2" transform="translate(102,4)"/>
<path d="M0 0 C3.10623668 2.55998343 6.08456097 5.22540343 9 8 C8.13006216 12.61908231 5.36207686 15.10553916 2.13671875 18.33203125 C1.25413139 19.22603889 1.25413139 19.22603889 0.35371399 20.1381073 C-0.8907621 21.39337581 -2.13922433 22.64470323 -3.39135742 23.89233398 C-5.30913421 25.80913592 -7.20458753 27.74627753 -9.09960938 29.68554688 C-10.3111975 30.90233998 -11.52404648 32.11787921 -12.73828125 33.33203125 C-13.30509109 33.91523636 -13.87190094 34.49844147 -14.45588684 35.09931946 C-16.08325195 36.69848633 -16.08325195 36.69848633 -19 39 C-22.49259545 38.53180827 -24.98120649 36.92555708 -27.9375 35.0625 C-36.9323844 29.40420332 -46.43431728 27.41413593 -56.92578125 29.61328125 C-68.40554324 32.99318523 -76.50895905 39.03205396 -82.66015625 49.2890625 C-87.48519165 59.05167057 -87.85719687 71.7006717 -84.4375 82.0625 C-79.69254916 92.82101702 -72.03132095 99.60344418 -61.23828125 104.16796875 C-50.83407905 106.84118355 -38.37542781 106.33185725 -29 101 C-27.39790775 99.96730838 -25.80665367 98.91761292 -24.2265625 97.8515625 C-23.43072754 97.31611816 -22.63489258 96.78067383 -21.81494141 96.22900391 C-21.21601074 95.82343262 -20.61708008 95.41786133 -20 95 C-15.72119773 99.22948983 -11.44891021 103.46541185 -7.18261719 107.70751953 C-5.72932827 109.15072972 -4.2742523 110.59214264 -2.81738281 112.03173828 C-0.72773165 114.09722341 1.35547908 116.16901486 3.4375 118.2421875 C4.09371338 118.88807831 4.74992676 119.53396912 5.42602539 120.19943237 C6.02664795 120.79990387 6.62727051 121.40037537 7.24609375 122.01904297 C7.77904053 122.54754852 8.3119873 123.07605408 8.86108398 123.62057495 C10 125 10 125 10 127 C8.20656033 128.65217559 6.42830676 130.14290838 4.5 131.625 C3.92483643 132.067229 3.34967285 132.50945801 2.75708008 132.96508789 C-16.32151655 147.12460628 -38.71144389 152.57288592 -62.25439453 149.72753906 C-77.92347937 147.14709262 -91.99093494 139.13377562 -104 129 C-105.07121094 128.09894531 -105.07121094 128.09894531 -106.1640625 127.1796875 C-116.73218026 117.45365083 -123.55617663 104.47813095 -128 91 C-128.33902344 89.99066406 -128.67804688 88.98132813 -129.02734375 87.94140625 C-134.79885505 67.48844686 -131.09495943 46.06800432 -121.13671875 27.6953125 C-109.94671271 7.93391408 -91.76659459 -6.75544805 -69.83227539 -12.97973633 C-46.02282471 -18.92860951 -20.0973541 -14.14984443 0 0 Z " fill="#F7F6F8" transform="translate(179,61)"/>
<path d="M0 0 C1.07894531 0.23976563 2.15789062 0.47953125 3.26953125 0.7265625 C23.36656987 5.8228347 41.22340698 14.44111312 57 28 C57.68320313 28.55042969 58.36640625 29.10085937 59.0703125 29.66796875 C68.69916443 37.61649161 78.67267708 49.16780302 83 61 C79.58997792 59.74649014 76.81760834 58.30774442 73.875 56.1875 C56.39684622 44.35303344 34.21320112 40.35253737 13.47265625 43.61328125 C-0.4593838 46.30410065 -12.75051388 52.73738529 -23.86328125 61.43359375 C-26 63 -26 63 -29 64 C-29.52207031 63.06800781 -30.04414062 62.13601562 -30.58203125 61.17578125 C-38.05506641 48.12209852 -47.12863475 37.38819346 -58 27 C-46.170814 14.65180035 -30.35377982 6.96779776 -14.375 1.4375 C-13.62903564 1.17364502 -12.88307129 0.90979004 -12.11450195 0.63793945 C-7.66036473 -0.81883256 -4.64393301 -1.20629754 0 0 Z " fill="#561FE3" transform="translate(102,4)"/>
<path d="M0 0 C0.50499023 0.38599365 1.00998047 0.7719873 1.53027344 1.16967773 C23.57238708 17.88244521 45.80730178 24.99349354 73.375 21.375 C85.68196417 18.86802582 98.30042859 12.95524373 108.20703125 5.29296875 C110 4 110 4 112 4 C103.43362327 27.97724541 77.39214237 44.98397777 55.6875 55.8125 C49.6010208 58.53661069 43.39729911 60.56651328 37 62.4375 C35.67295044 62.82675659 35.67295044 62.82675659 34.3190918 63.22387695 C26.25752461 65.45090117 20.06030775 65.47288944 12.125 62.5625 C11.39321533 62.29735596 10.66143066 62.03221191 9.9074707 61.7590332 C-3.33466901 56.77467202 -15.00438098 49.84623307 -26 41 C-26.76699219 40.46117187 -27.53398438 39.92234375 -28.32421875 39.3671875 C-28.87722656 38.91601562 -29.43023437 38.46484375 -30 38 C-30 37.34 -30 36.68 -30 36 C-28.63671875 34.6953125 -28.63671875 34.6953125 -26.6875 33.125 C-15.47634985 23.49288508 -7.66602473 12.51474829 0 0 Z " fill="#A441E2" transform="translate(73,188)"/>
<path d="M0 0 C2.71637439 2.46868068 4.48798074 5.21423175 6.4375 8.3125 C9.71781179 13.29663362 13.24911485 17.90227441 17.125 22.4375 C17.61540771 23.01604736 18.10581543 23.59459473 18.61108398 24.19067383 C21.80716026 27.87121474 25.18164981 30.96911372 29 34 C28.34 34.66 27.68 35.32 27 36 C20.40045606 29.8150871 14.33497362 23.51125621 9 16.1875 C8.55615967 15.5783374 8.11231934 14.9691748 7.6550293 14.34155273 C0 3.58538244 0 3.58538244 0 0 Z " fill="#702AE3" transform="translate(15,189)"/>
<path d="M0 0 C-1.3584202 3.04332765 -2.88463024 5.12309151 -5.2578125 7.453125 C-5.88300781 8.071875 -6.50820313 8.690625 -7.15234375 9.328125 C-7.80332031 9.96234375 -8.45429687 10.5965625 -9.125 11.25 C-9.78371094 11.8996875 -10.44242188 12.549375 -11.12109375 13.21875 C-12.74296643 14.81711727 -14.3693281 16.41061897 -16 18 C-16 13.73187416 -13.48608073 11.92209942 -10.6875 9 C-10.18798828 8.46632813 -9.68847656 7.93265625 -9.17382812 7.3828125 C-7.79281451 5.91217019 -6.39691782 4.45554389 -5 3 C-4.42894531 2.38125 -3.85789062 1.7625 -3.26953125 1.125 C-2 0 -2 0 0 0 Z " fill="#C34FE1" transform="translate(44,31)"/>
</svg>
