<?xml version="1.0" encoding="UTF-8"?>
<svg version="1.1" xmlns="http://www.w3.org/2000/svg" width="512" height="512">
<path d="M0 0 C0.6590332 0.35030273 1.31806641 0.70060547 1.99707031 1.06152344 C36.63049549 19.49624473 79.68794134 54.55554952 92.0546875 93.3046875 C94.09235053 103.19112666 92.20596855 111.31246481 86.76953125 119.73828125 C81.67081329 126.25518566 74.39564277 130.4623067 66.16796875 131.46875 C56.04576347 131.54821775 48.94403967 130.29916493 41.125 123.5 C37.71401505 119.48707653 34.60910159 115.5064589 31.875 111 C14.32212906 83.19863753 -10.01096979 62.40694451 -40 49 C-40.6914209 48.69078613 -41.3828418 48.38157227 -42.09521484 48.06298828 C-81.11790101 30.99223625 -126.27355347 30.92316711 -165.86914062 46.22998047 C-183.3301113 53.32387794 -199.77391042 62.82581983 -213.546875 75.8203125 C-215 77 -215 77 -217 77 C-217 77.66 -217 78.32 -217 79 C-217.66 79 -218.32 79 -219 79 C-219 79.66 -219 80.32 -219 81 C-219.804375 81.639375 -220.60875 82.27875 -221.4375 82.9375 C-226.39756669 86.9172241 -230.11548002 92.00656577 -234 97 C-234.99193359 98.2684375 -234.99193359 98.2684375 -236.00390625 99.5625 C-256.29303587 126.45072026 -267.47082972 158.39466267 -269 192 C-269.05414063 193.13824219 -269.10828125 194.27648437 -269.1640625 195.44921875 C-270.23472652 239.68710948 -252.08776025 279.63365728 -223 312 C-222.39800781 312.67546875 -221.79601562 313.3509375 -221.17578125 314.046875 C-215.93239964 319.59402935 -209.70565311 324.14546409 -203.64257812 328.75 C-202.28917244 329.77994012 -200.94760046 330.8254114 -199.609375 331.875 C-186.11769882 341.96949153 -170.09274459 349.21418946 -154 354 C-152.86763916 354.34369629 -152.86763916 354.34369629 -151.71240234 354.69433594 C-109.11876222 367.41860133 -64.8667432 361.01060587 -25.83203125 340.55371094 C-19.16302374 336.89495544 -12.98520251 332.6848058 -7 328 C-6.42894531 327.55301758 -5.85789062 327.10603516 -5.26953125 326.64550781 C-1.39010663 323.56283001 2.34168255 320.34126327 6 317 C6.51014648 316.53513184 7.02029297 316.07026367 7.54589844 315.59130859 C17.50804383 306.38406262 25.40564175 295.89494764 32.50927734 284.36791992 C37.44738958 276.37725472 43.2293625 268.27763481 52.64453125 265.40234375 C63.76925958 263.50209994 72.86226717 264.98686699 82.25 271.125 C89.80163061 279.01988655 93.0685725 287.49700979 92.98046875 298.421875 C90.377514 319.10668871 69.54070494 340.19946807 55.60791016 354.36132812 C54.11083007 355.88704959 52.63686739 357.43158396 51.16796875 358.984375 C33.39570675 377.40715903 11.11227312 391.66003398 -12.11230469 402.13769531 C-13.68316716 402.85526984 -15.2383552 403.60703686 -16.7890625 404.3671875 C-66.3389225 428.43426236 -127.60462378 427.92658758 -179.07421875 410.7578125 C-198.46753216 404.00384475 -217.27855605 394.96047727 -234 383 C-234.94875 382.32582031 -235.8975 381.65164063 -236.875 380.95703125 C-287.52771153 343.97785754 -318.89009088 290.40883912 -328.61450195 228.6862793 C-329.52960659 222.3095242 -330.16364959 216.15281738 -330.203125 209.71484375 C-330.21013931 208.94483032 -330.21715363 208.17481689 -330.22438049 207.38146973 C-330.24182626 204.9000865 -330.24823606 202.41894237 -330.25 199.9375 C-330.25067474 199.08785675 -330.25134949 198.2382135 -330.25204468 197.36282349 C-330.18320065 142.73476474 -311.00329053 92.1784268 -275.3828125 50.8125 C-273.04256226 48.12897533 -273.04256226 48.12897533 -271.3046875 45.625 C-270.87414062 45.08875 -270.44359375 44.5525 -270 44 C-269.34 44 -268.68 44 -268 44 C-267.73227783 43.40396973 -267.46455566 42.80793945 -267.1887207 42.19384766 C-265.98438605 39.97118362 -264.81460278 38.61854212 -262.98046875 36.8984375 C-262.3771875 36.33092773 -261.77390625 35.76341797 -261.15234375 35.17871094 C-260.50394531 34.58348633 -259.85554688 33.98826172 -259.1875 33.375 C-258.51460938 32.75399414 -257.84171875 32.13298828 -257.1484375 31.49316406 C-251.05036975 25.93197892 -244.72018292 20.79107648 -238 16 C-237.43909668 15.59861816 -236.87819336 15.19723633 -236.30029297 14.78369141 C-205.73291476 -6.85427607 -170.26022072 -20.82692048 -133 -25 C-132.27433838 -25.0928125 -131.54867676 -25.185625 -130.80102539 -25.28125 C-85.95259892 -30.55698129 -39.58997678 -21.53283413 0 0 Z " fill="#6791EE" transform="translate(375,58)"/>
</svg>
